<?xml version="1.0" encoding="UTF-8" standalone="no"?>
<!-- Created with Inkscape (http://www.inkscape.org/) -->

<svg
   width="143"
   height="36"
   viewBox="0 0 143 36"
   version="1.1"
   id="svg8"
   inkscape:version="1.3.2 (091e20ef0f, 2023-11-25)"
   sodipodi:docname="other.svg"
   xml:space="preserve"
   xmlns:inkscape="http://www.inkscape.org/namespaces/inkscape"
   xmlns:sodipodi="http://sodipodi.sourceforge.net/DTD/sodipodi-0.dtd"
   xmlns:xlink="http://www.w3.org/1999/xlink"
   xmlns="http://www.w3.org/2000/svg"
   xmlns:svg="http://www.w3.org/2000/svg"><defs
     id="defs2"><linearGradient
       id="linearGradient8"
       inkscape:collect="always"><stop
         style="stop-color:#171717;stop-opacity:1;"
         offset="0"
         id="stop8" /><stop
         style="stop-color:#2c2b24;stop-opacity:1;"
         offset="1"
         id="stop9" /></linearGradient><linearGradient
       inkscape:collect="always"
       xlink:href="#linearGradient8"
       id="linearGradient4"
       gradientUnits="userSpaceOnUse"
       x1="481.58118"
       y1="442"
       x2="481.58118"
       y2="539"
       gradientTransform="matrix(0.25,0,0,0.33333333,-55.499991,-10.858355)" /><linearGradient
       inkscape:collect="always"
       xlink:href="#linearGradient8"
       id="linearGradient11"
       gradientUnits="userSpaceOnUse"
       gradientTransform="matrix(0.25,0,0,0.33333333,-55.499991,-10.858355)"
       x1="481.58118"
       y1="442"
       x2="481.58118"
       y2="539" /><clipPath
       clipPathUnits="userSpaceOnUse"
       id="clipPath16"><rect
         style="opacity:0.5;fill:#b59161;fill-opacity:1;stroke:none;stroke-width:8.9409;stroke-linecap:square;stroke-dasharray:none;stroke-opacity:1;paint-order:stroke fill markers"
         id="rect17"
         width="53.497341"
         height="72"
         x="2.5026588"
         y="116.47498" /></clipPath><clipPath
       clipPathUnits="userSpaceOnUse"
       id="clipPath17"><rect
         style="opacity:0.5;fill:#b59161;fill-opacity:1;stroke:none;stroke-width:12.2082;stroke-linecap:square;stroke-dasharray:none;stroke-opacity:1;paint-order:stroke fill markers"
         id="rect18"
         width="100"
         height="71.813057"
         x="56"
         y="116.56845" /></clipPath><linearGradient
       inkscape:collect="always"
       xlink:href="#linearGradient8"
       id="linearGradient22"
       gradientUnits="userSpaceOnUse"
       gradientTransform="matrix(0.25,0,0,0.33333333,-227.49999,184.40745)"
       x1="481.58118"
       y1="442"
       x2="481.58118"
       y2="539" /><clipPath
       clipPathUnits="userSpaceOnUse"
       id="clipPath18"><rect
         style="opacity:0.5;fill:#b59161;fill-opacity:1;stroke:none;stroke-width:8.9409;stroke-linecap:square;stroke-dasharray:none;stroke-opacity:1;paint-order:stroke fill markers"
         id="rect21"
         width="53.497341"
         height="72"
         x="-158.49734"
         y="-399.47498"
         transform="scale(-1)" /></clipPath><style
       id="current-color-scheme"
       type="text/css">.ColorScheme-Text {
        color:#363636;
      }</style><style
       id="current-color-scheme-6"
       type="text/css">.ColorScheme-Text {
        color:#363636;
      }</style></defs><sodipodi:namedview
     id="base"
     pagecolor="#4d4d4d"
     bordercolor="#666666"
     borderopacity="1.0"
     inkscape:pageopacity="0"
     inkscape:pageshadow="2"
     inkscape:zoom="1.4"
     inkscape:cx="78.214286"
     inkscape:cy="92.142857"
     inkscape:document-units="px"
     inkscape:current-layer="layer1"
     showgrid="true"
     units="px"
     inkscape:window-width="1920"
     inkscape:window-height="1010"
     inkscape:window-x="0"
     inkscape:window-y="34"
     inkscape:window-maximized="1"
     inkscape:pagecheckerboard="0"
     inkscape:snap-bbox="true"
     inkscape:bbox-nodes="true"
     inkscape:snap-nodes="true"
     inkscape:snap-bbox-edge-midpoints="true"
     inkscape:showpageshadow="2"
     inkscape:deskcolor="#d1d1d1"><inkscape:grid
       type="xygrid"
       id="grid28"
       originx="0"
       originy="0"
       spacingy="1"
       spacingx="1"
       units="px"
       visible="true" /></sodipodi:namedview><g
     id="layer1"
     transform="translate(0,-287.47498)"><g
       id="select_w"
       transform="translate(-40,153)"
       clip-path="url(#clipPath16)"><rect
         style="fill:none;fill-opacity:1;stroke:#000000;stroke-width:4;stroke-linecap:square;stroke-dasharray:none;stroke-opacity:1;paint-order:stroke fill markers"
         id="rect4"
         width="128"
         height="32"
         x="42"
         y="136.47498" /><rect
         style="fill:url(#linearGradient4);fill-opacity:1;stroke:#383735;stroke-width:2;stroke-linecap:square;stroke-dasharray:none;stroke-opacity:1;paint-order:stroke fill markers"
         id="rect2"
         width="128"
         height="32"
         x="42"
         y="136.47498" /><path
         id="path3"
         style="fill:#b59161;fill-opacity:1;stroke:none;stroke-width:1.03192;stroke-linecap:square;stroke-linejoin:miter;stroke-dasharray:none;stroke-opacity:1;paint-order:stroke fill markers"
         d="m 41.000001,135.47497 v 2.6764 a 19.489785,19.489785 0 0 1 2.638432,-2.6764 z m 5.024816,0 a 18.028924,18.028924 0 0 0 -5.024816,5.16216 v 3.6757 a 16.321243,16.321243 0 0 1 8.588241,-8.83786 z" /><path
         id="rect5"
         style="fill:#4f4831;fill-opacity:1;stroke:none;stroke-width:1.84136;stroke-linecap:square;stroke-dasharray:none;stroke-opacity:1;paint-order:stroke fill markers"
         d="m 50,138.47498 c -3.32399,0 -6,2.676 -6,6 v 12 2 8 h 9 2 107 c 3.324,0 6,-2.676 6,-6 v -16 -6 h -7 z m 0,1 h 111 6 v 9 12 c 0,2.77 -2.23,5 -5,5 H 55 53 45 v -7 -2 -12 c 0,-2.77 2.230012,-5 5,-5 z" /><path
         id="path7"
         style="fill:#b59161;fill-opacity:1;stroke:none;stroke-width:1.03192;stroke-linecap:square;stroke-linejoin:miter;stroke-dasharray:none;stroke-opacity:1;paint-order:stroke fill markers"
         d="m 171,169.47498 v -2.6764 a 19.489785,19.489785 0 0 1 -2.63844,2.6764 z m -5.02482,0 A 18.028924,18.028924 0 0 0 171,164.31282 v -3.6757 a 16.321243,16.321243 0 0 1 -8.58824,8.83786 z" /></g><g
       id="select_c"
       transform="translate(-40,153)"
       clip-path="url(#clipPath17)"><rect
         style="fill:none;fill-opacity:1;stroke:#000000;stroke-width:4;stroke-linecap:square;stroke-dasharray:none;stroke-opacity:1;paint-order:stroke fill markers"
         id="rect8"
         width="128"
         height="32"
         x="42"
         y="136.47498" /><rect
         style="fill:url(#linearGradient11);fill-opacity:1;stroke:#383735;stroke-width:2;stroke-linecap:square;stroke-dasharray:none;stroke-opacity:1;paint-order:stroke fill markers"
         id="rect9"
         width="128"
         height="32"
         x="42"
         y="136.47498" /><path
         id="path9"
         style="fill:#b59161;fill-opacity:1;stroke:none;stroke-width:1.03192;stroke-linecap:square;stroke-linejoin:miter;stroke-dasharray:none;stroke-opacity:1;paint-order:stroke fill markers"
         d="m 41.000001,135.47497 v 2.6764 a 19.489785,19.489785 0 0 1 2.638432,-2.6764 z m 5.024816,0 a 18.028924,18.028924 0 0 0 -5.024816,5.16216 v 3.6757 a 16.321243,16.321243 0 0 1 8.588241,-8.83786 z" /><path
         id="path10"
         style="fill:#4f4831;fill-opacity:1;stroke:none;stroke-width:1.84136;stroke-linecap:square;stroke-dasharray:none;stroke-opacity:1;paint-order:stroke fill markers"
         d="m 50,138.47498 c -3.32399,0 -6,2.676 -6,6 v 12 2 8 h 9 2 107 c 3.324,0 6,-2.676 6,-6 v -16 -6 h -7 z m 0,1 h 111 6 v 9 12 c 0,2.77 -2.23,5 -5,5 H 55 53 45 v -7 -2 -12 c 0,-2.77 2.230012,-5 5,-5 z" /><path
         id="path11"
         style="fill:#b59161;fill-opacity:1;stroke:none;stroke-width:1.03192;stroke-linecap:square;stroke-linejoin:miter;stroke-dasharray:none;stroke-opacity:1;paint-order:stroke fill markers"
         d="m 171,169.47498 v -2.6764 a 19.489785,19.489785 0 0 1 -2.63844,2.6764 z m -5.02482,0 A 18.028924,18.028924 0 0 0 171,164.31282 v -3.6757 a 16.321243,16.321243 0 0 1 -8.58824,8.83786 z" /></g><g
       id="select_e"
       clip-path="url(#clipPath18)"
       transform="translate(10.999996,-42.265804)"><rect
         style="fill:none;fill-opacity:1;stroke:#000000;stroke-width:4;stroke-linecap:square;stroke-dasharray:none;stroke-opacity:1;paint-order:stroke fill markers"
         id="rect19"
         width="128"
         height="32"
         x="-130"
         y="-363.74078"
         transform="scale(-1)" /><rect
         style="fill:url(#linearGradient22);fill-opacity:1;stroke:#383735;stroke-width:2;stroke-linecap:square;stroke-dasharray:none;stroke-opacity:1;paint-order:stroke fill markers"
         id="rect20"
         width="128"
         height="32"
         x="-130"
         y="331.74078"
         transform="scale(-1,1)" /><path
         id="path20"
         style="fill:#b59161;fill-opacity:1;stroke:none;stroke-width:1.03192;stroke-linecap:square;stroke-linejoin:miter;stroke-dasharray:none;stroke-opacity:1;paint-order:stroke fill markers"
         d="m 131,364.74079 v -2.6764 a 19.489785,19.489785 0 0 1 -2.63843,2.6764 z m -5.02482,0 A 18.028924,18.028924 0 0 0 131,359.57863 v -3.6757 a 16.321243,16.321243 0 0 1 -8.58824,8.83786 z" /><path
         id="path21"
         style="fill:#4f4831;fill-opacity:1;stroke:none;stroke-width:1.84136;stroke-linecap:square;stroke-dasharray:none;stroke-opacity:1;paint-order:stroke fill markers"
         d="m 122,361.74078 c 3.32399,0 6,-2.676 6,-6 v -12 -2 -8 h -9 -2 -107 c -3.324,0 -6,2.676 -6,6 v 16 6 h 7 z m 0,-1 H 11 5 v -9 -12 c 0,-2.77 2.23,-5 5,-5 h 107 2 8 v 7 2 12 c 0,2.77 -2.23001,5 -5,5 z" /><path
         id="path22"
         style="fill:#b59161;fill-opacity:1;stroke:none;stroke-width:1.03192;stroke-linecap:square;stroke-linejoin:miter;stroke-dasharray:none;stroke-opacity:1;paint-order:stroke fill markers"
         d="m 1,330.74078 v 2.6764 a 19.489785,19.489785 0 0 1 2.63844,-2.6764 z m 5.02482,0 A 18.028924,18.028924 0 0 0 1,335.90294 v 3.6757 a 16.321243,16.321243 0 0 1 8.58824,-8.83786 z" /><path
         style="fill:#b59161;fill-opacity:1;stroke-width:0.981985;stroke-linecap:square;paint-order:stroke fill markers"
         d="m 112,341.47498 c 1.42857,3.6 1.42857,8.4 0,12 2.85714,-3 6.42857,-4.8 10,-6 -3.57143,-1.2 -7.14286,-3.6 -10,-6 z"
         id="path4"
         sodipodi:nodetypes="cccc" /><path
         style="opacity:0.75;fill:#b59161;fill-opacity:1;stroke-width:0.654657;stroke-linecap:square;paint-order:stroke fill markers"
         d="m 111,343.47498 c 0.95238,2.4 0.95238,5.6 0,8 1.90476,-2 4.28571,-3.2 6.66667,-4 -2.38096,-0.8 -4.76191,-2.4 -6.66667,-4 z"
         id="path5"
         sodipodi:nodetypes="cccc" /><path
         id="path6"
         style="opacity:0.15;fill:#ffffff;fill-opacity:1;stroke-width:0.654657;stroke-linecap:square;paint-order:stroke fill markers"
         d="m 112.75,344.08436 c 0.41692,2.14927 0.42667,4.4854 0.0273,6.64257 1.75567,-1.55971 3.82125,-2.55729 5.88868,-3.25195 -2.07781,-0.69814 -4.15469,-2.00566 -5.91602,-3.39062 z" /></g><g
       id="info"><rect
         y="347.47498"
         width="480"
         height="42"
         id="rect1"
         x="-170"
         style="fill:none" /><path
         id="path8"
         style="fill:#b59161;fill-opacity:1;stroke-width:0.459682"
         d="M -117.35938 347.47498 C -117.51826 347.47482 -118.41536 349.69853 -119.35352 352.41639 C -121.27507 357.98319 -121.59132 358.50623 -123.0332 358.50623 C -124.67768 358.50623 -126.95312 357.55167 -126.95312 356.8617 C -126.95312 356.34172 -130.01369 354.36951 -130.82031 354.36951 C -131.42668 354.36951 -129.19817 358.27664 -128.42969 358.56092 C -127.33705 358.96512 -126.46363 362.03954 -127.06055 363.37732 C -127.35493 364.03701 -128.95938 364.82744 -132.51172 366.06482 C -135.28026 367.02917 -137.63975 367.97264 -137.75586 368.16053 C -137.87198 368.34842 -135.74779 369.2707 -133.03516 370.21131 C -127.03507 372.29185 -126.36306 372.90654 -127.1543 375.58631 C -127.51766 376.81688 -128.07995 377.63979 -128.7168 377.87537 C -129.26393 378.07777 -129.71094 378.32835 -129.71094 378.43201 C -129.71094 378.53569 -130.02217 379.3659 -130.40234 380.27576 L -131.09375 381.93006 L -129.91211 381.48084 C -127.80985 380.68155 -126.95312 380.093 -126.95312 379.44959 C -126.95313 379.10302 -126.07451 378.52044 -125 378.15467 C -122.16669 377.19022 -121.33071 377.74089 -120.05859 381.41443 C -119.47492 383.09991 -118.5865 385.60309 -118.08398 386.97693 L -117.17188 389.47498 L -115.25 384.04334 C -112.97901 377.62328 -112.53656 377.15258 -109.68164 378.12537 C -108.56256 378.50667 -107.64648 379.10706 -107.64648 379.4574 C -107.64648 379.97343 -104.5918 381.95154 -103.79492 381.95154 C -103.17314 381.95154 -105.20832 378.12658 -105.98242 377.84021 C -107.13286 377.41464 -108.11431 374.30232 -107.52539 372.94764 C -107.22049 372.24629 -105.69524 371.50234 -101.86133 370.18787 C -98.976221 369.1987 -96.615684 368.26294 -96.615234 368.10779 C -96.614724 367.95263 -98.838773 367.05417 -101.55664 366.1117 C -107.6987 363.98187 -108.30748 363.39893 -107.3418 360.56482 C -106.95632 359.43348 -106.35425 358.50623 -106.00391 358.50623 C -105.41949 358.50623 -103.2409 354.94503 -103.60352 354.5824 C -104.00673 354.17919 -107.58207 356.21772 -107.7207 356.93006 C -107.92112 357.95996 -111.18516 358.9625 -112.49219 358.3949 C -113.16597 358.10232 -113.94619 356.503 -115.25195 352.73084 C -116.25259 349.84017 -117.20049 347.47516 -117.35938 347.47498 z M -110.52539 362.47693 L -110.52539 362.48084 C -110.51639 362.48043 -110.5087 362.48084 -110.5 362.48084 C -110.223 362.48084 -110 362.70384 -110 362.98084 L -110 368.98475 C -110 369.19262 -110.12509 369.36997 -110.30469 369.44568 C -110.31269 369.44868 -110.32063 369.4495 -110.32812 369.4535 C -110.34362 369.4575 -110.3587 369.46532 -110.375 369.46912 C -110.3988 369.47712 -110.42402 369.48095 -110.44922 369.48475 C -110.46622 369.48675 -110.4828 369.4867 -110.5 369.4867 L -123.29297 369.4867 L -119.9043 372.87537 C -119.70844 373.07115 -119.70844 373.38651 -119.9043 373.5824 C -120.10016 373.77818 -120.41546 373.77818 -120.61133 373.5824 L -124.81836 369.37342 C -124.82436 369.36942 -124.82868 369.36159 -124.83398 369.35779 C -124.83998 369.34979 -124.84712 369.34586 -124.85352 369.33826 C -124.85952 369.33026 -124.86579 369.32828 -124.87109 369.32068 L -124.87109 369.31873 C -124.87609 369.31073 -124.88182 369.3068 -124.88672 369.2992 C -124.89172 369.2912 -124.89744 369.28336 -124.90234 369.27576 C -124.90634 369.27176 -124.91036 369.26589 -124.91406 369.26209 C -124.91506 369.26009 -124.91697 369.26018 -124.91797 369.25818 L -124.91797 369.25623 C -124.92197 369.24823 -124.92599 369.2443 -124.92969 369.2367 C -124.93169 369.2327 -124.9355 369.22828 -124.9375 369.22498 C -124.93818 369.22398 -124.93845 369.22207 -124.93945 369.22107 C -124.94045 369.21907 -124.94236 369.21726 -124.94336 369.21326 C -124.94536 369.20926 -124.94722 369.20484 -124.94922 369.20154 C -124.94985 369.20054 -124.95017 369.19864 -124.95117 369.19764 C -124.95217 369.19564 -124.95196 369.19382 -124.95312 369.18982 C -124.95612 369.18182 -124.95989 369.17399 -124.96289 369.16639 C -124.96589 369.15839 -124.96966 369.1525 -124.97266 369.1449 L -124.97266 369.14295 C -124.97312 369.14195 -124.97361 369.14004 -124.97461 369.13904 C -124.97761 369.12774 -124.97942 369.11909 -124.98242 369.10779 C -124.98294 369.10579 -124.98437 369.10398 -124.98438 369.09998 C -124.98524 369.09698 -124.98728 369.09156 -124.98828 369.08826 C -124.98928 369.08026 -124.98906 369.07828 -124.99023 369.07068 C -124.99123 369.06268 -124.99314 369.05485 -124.99414 369.04725 L -124.99414 369.04529 C -124.9951 369.03729 -124.99705 369.03336 -124.99805 369.02576 L -124.99805 369.02186 C -124.99905 369.00676 -125 368.99168 -125 368.97498 C -125 368.96698 -125.00037 368.9611 -125 368.9535 L -125 368.95154 C -124.99965 368.94354 -124.99905 368.9357 -124.99805 368.92811 L -124.99805 368.9242 C -124.99732 368.9162 -124.99514 368.90836 -124.99414 368.90076 C -124.99314 368.88946 -124.99223 368.88276 -124.99023 368.87146 C -124.98942 368.86746 -124.98928 368.86305 -124.98828 368.85975 C -124.98736 368.85575 -124.98537 368.85133 -124.98438 368.84803 C -124.98138 368.83673 -124.97861 368.82612 -124.97461 368.81482 C -124.97415 368.81382 -124.97266 368.81192 -124.97266 368.81092 L -124.97266 368.80896 C -124.97066 368.80096 -124.96684 368.79703 -124.96484 368.78943 C -124.96433 368.78843 -124.96389 368.78653 -124.96289 368.78553 L -124.96289 368.78357 C -124.96209 368.78157 -124.96194 368.77976 -124.96094 368.77576 C -124.95894 368.77176 -124.95612 368.76394 -124.95312 368.76014 C -124.94813 368.75214 -124.94405 368.74235 -124.93945 368.73475 C -124.93645 368.73075 -124.93269 368.72292 -124.92969 368.71912 C -124.92469 368.71112 -124.91936 368.69938 -124.91406 368.69178 C -124.91006 368.68778 -124.90604 368.6819 -124.90234 368.67811 L -124.90234 368.67615 C -124.90134 368.67415 -124.89944 368.67039 -124.89844 368.66639 C -124.89544 368.66239 -124.89042 368.65992 -124.88672 368.65662 L -124.88672 368.65271 C -124.88372 368.64871 -124.88095 368.6443 -124.87695 368.641 C -124.87595 368.639 -124.87309 368.63909 -124.87109 368.63709 L -124.87109 368.63514 C -124.86509 368.62714 -124.85962 368.6232 -124.85352 368.61561 L -120.61133 364.37146 C -120.41547 364.17568 -120.10017 364.17568 -119.9043 364.37146 C -119.70844 364.56724 -119.70844 364.8826 -119.9043 365.0785 L -123.29297 368.46912 L -111 368.46912 L -111 362.97693 C -111 362.70858 -110.79031 362.49028 -110.52539 362.47693 z " /><path
         d="m 257,362.48498 c -1.108,0 -2,0.892 -2,2 v 9 c 0,1.108 0.892,2 2,2 h 12 c 1.108,0 2,-0.892 2,-2 v -9 c 0,-1.108 -0.892,-2 -2,-2 z m 0,1 h 12 c 0.554,0 1,0.446 1,1 v 9 c 0,0.554 -0.446,1 -1,1 h -12 c -0.554,0 -1,-0.446 -1,-1 v -9 c 0,-0.554 0.446,-1 1,-1 z m 1.7188,1 -0.71875,0.6875 2.625,2.8125 -2.5938,2.8125 0.6875,0.6875 2.9688,-3.1562 0.3125,-0.34375 -0.3125,-0.34375 z m 3.2812,7 v 1 h 4 v -1 z"
         fill="#b59161"
         id="path1" /><path
         d="m 88.50977,360.47498 c -0.52809,-1e-5 -1.0357,0.20965 -1.4082,0.58398 -0.37025,0.37201 -0.57804,0.87775 -0.57812,1.4023 -0.008,0.54777 -0.44262,0.97755 -0.99023,0.97852 -0.16286,-0.002 -0.32085,-0.0477 -0.46094,-0.13086 a 0.50005,0.50005 0 0 0 -0.008,-0.004 c -0.94825,-0.54336 -2.1712,-0.2126 -2.7168,0.73438 l -0.51562,0.84766 a 0.50005,0.50005 0 0 0 -0.006,0.01 c -0.54496,0.94581 -0.21898,2.168 0.72461,2.7168 a 0.50005,0.50005 0 0 0 0.002,0.002 c 0.30786,0.17772 0.49609,0.50395 0.49609,0.85938 0,0.35554 -0.18818,0.68159 -0.49609,0.85938 -0.94343,0.54576 -1.2713,1.7669 -0.72656,2.7109 a 0.50005,0.50005 0 0 0 0,0.002 l 0.48828,0.8418 0.002,0.002 c 0.25709,0.46235 0.68834,0.80462 1.1973,0.94922 0.50986,0.14497 1.0572,0.0795 1.5195,-0.17969 a 0.50005,0.50005 0 0 0 0.006,-0.004 c 0.22559,-0.13165 0.49383,-0.16716 0.74609,-0.0996 a 0.50005,0.50005 0 0 0 0.002,0 c 0.25231,0.0675 0.46602,0.23231 0.5957,0.45898 a 0.50005,0.50005 0 0 0 0.004,0.008 c 0.0835,0.14076 0.12916,0.29929 0.13086,0.46289 0.003,1.0925 0.89902,1.9883 1.9922,1.9883 h 0.97852 c 1.0911,0 1.987,-0.89332 1.9922,-1.9844 a 0.50005,0.50005 0 0 0 0,-0.004 c -10e-4,-0.26322 0.10291,-0.51496 0.28906,-0.70117 0.18507,-0.18507 0.43568,-0.2872 0.69727,-0.28711 0.16548,0.005 0.32874,0.051 0.47266,0.13281 0.9455,0.54308 2.1684,0.21626 2.7168,-0.72656 l 0.50977,-0.85156 a 0.50005,0.50005 0 0 0 0.004,-0.006 c 0.26597,-0.45645 0.3393,-0.99921 0.20312,-1.5098 -0.13616,-0.51046 -0.46983,-0.94747 -0.92774,-1.2109 -0.22759,-0.13092 -0.39325,-0.34587 -0.46094,-0.59961 -0.0677,-0.25363 -0.0326,-0.52315 0.0996,-0.75 a 0.50005,0.50005 0 0 0 0.002,-0.004 c 0.0852,-0.1488 0.20851,-0.27212 0.35742,-0.35742 a 0.50005,0.50005 0 0 0 0.004,-0.002 c 0.89916,-0.52597 1.2257,-1.6612 0.77734,-2.5859 a 0.50005,0.50005 0 0 0 -0.0527,-0.13086 l -0.48633,-0.84375 c -0.54562,-0.94691 -1.7685,-1.2777 -2.7168,-0.73438 a 0.50005,0.50005 0 0 0 -0.006,0.004 c -0.22567,0.13295 -0.49439,0.17132 -0.74805,0.10547 -0.25358,-0.0658 -0.47094,-0.23099 -0.60352,-0.45703 a 0.50005,0.50005 0 0 0 0,-0.002 c -0.0835,-0.14063 -0.12913,-0.29929 -0.13086,-0.46289 v 0.0195 c 0.0155,-0.53821 -0.1872,-1.0612 -0.5625,-1.4473 -0.37528,-0.38603 -0.89133,-0.60374 -1.4297,-0.60352 h -0.97869 z m 0,1 h 0.97852 c 0.26844,-1.2e-4 0.52569,0.10822 0.71289,0.30078 0.18718,0.19253 0.28703,0.45232 0.2793,0.7207 a 0.50005,0.50005 0 0 0 0,0.0195 c 0.004,0.33821 0.0975,0.6697 0.26953,0.96094 0.26667,0.45468 0.70265,0.78549 1.2129,0.91797 0.50797,0.13186 1.049,0.0576 1.502,-0.20703 0.48013,-0.2751 1.0773,-0.11421 1.3535,0.36523 l 0.46875,0.8125 a 0.50005,0.50005 0 0 0 0.0176,0.0352 c 0.27261,0.47764 0.11336,1.0719 -0.36133,1.3496 -0.30024,0.17284 -0.54975,0.42233 -0.72266,0.72266 v 0.002 c -0.26515,0.45616 -0.33913,0.99992 -0.20312,1.5098 0.13615,0.51038 0.4697,0.9455 0.92773,1.209 0.22756,0.13093 0.39328,0.3479 0.46094,0.60156 0.0673,0.25234 0.0309,0.51999 -0.0996,0.74609 -6.7e-4,0.001 6.8e-4,0.003 0,0.004 l -0.51172,0.85156 a 0.50005,0.50005 0 0 0 -0.004,0.006 c -0.27779,0.47762 -0.87471,0.63719 -1.3535,0.36133 a 0.50005,0.50005 0 0 0 -0.002,-0.002 c -0.2896,-0.1656 -0.61582,-0.25672 -0.94922,-0.26562 a 0.50005,0.50005 0 0 0 -0.01,0 c -0.52982,-0.003 -1.0394,0.20741 -1.4141,0.58203 -0.37447,0.37457 -0.58457,0.88233 -0.58203,1.4121 -0.005,0.55042 -0.44117,0.98438 -0.99219,0.98438 h -0.97852 c -0.55436,0 -0.99414,-0.43796 -0.99414,-0.99219 a 0.50005,0.50005 0 0 0 0,-0.006 c -0.004,-0.33749 -0.0964,-0.66827 -0.26758,-0.95898 -0.26208,-0.45657 -0.69447,-0.79164 -1.2031,-0.92774 -0.50677,-0.13569 -1.0479,-0.063 -1.502,0.19922 -0.23061,0.12928 -0.5016,0.16018 -0.75586,0.0879 -0.25426,-0.0722 -0.46952,-0.24144 -0.59766,-0.47266 a 0.50005,0.50005 0 0 0 -0.004,-0.01 l -0.49219,-0.84766 c -0.27481,-0.47621 -0.11658,-1.0704 0.35938,-1.3457 0.61589,-0.35561 0.99609,-1.0154 0.99609,-1.7266 0,-0.71066 -0.38088,-1.3689 -0.99609,-1.7246 v -0.002 c -0.47648,-0.27816 -0.63497,-0.87326 -0.35938,-1.3516 l 0.51562,-0.84766 a 0.50005,0.50005 0 0 0 0.006,-0.01 c 0.27621,-0.47941 0.87345,-0.64227 1.3535,-0.36719 0.29021,0.17048 0.62038,0.26409 0.95703,0.26758 a 0.50005,0.50005 0 0 0 0.006,0 c 1.0839,1.4e-4 1.9766,-0.88107 1.9922,-1.9648 a 0.50005,0.50005 0 0 0 0,-0.01 c -10e-4,-0.26248 0.10196,-0.51319 0.28711,-0.69922 0.18511,-0.186 0.43681,-0.29102 0.69922,-0.29102 z m 0.49023,4 c -1.6509,0 -3,1.3491 -3,3 0,1.6509 1.3491,3 3,3 1.6509,0 3,-1.3491 3,-3 0,-1.6509 -1.3491,-3 -3,-3 z m 0,1 c 1.1105,0 2,0.88951 2,2 0,1.11049 -0.88951,2 -2,2 -1.11049,0 -2,-0.88951 -2,-2 0,-1.11049 0.88951,-2 2,-2 z"
         fill="#b59161"
         id="path2" /><path
         d="m -91,361.47498 c -1.108,0 -2,0.892 -2,2 v 10 c 0,1.108 0.892,2 2,2 h 10 c 1.108,0 2,-0.892 2,-2 v -10 c 0,-1.108 -0.892,-2 -2,-2 z m 0,3 h 10 c 0.554,0 1,0.446 1,1 v 8 c 0,0.554 -0.446,1 -1,1 h -10 c -0.554,0 -1,-0.446 -1,-1 v -8 c 0,-0.554 0.446,-1 1,-1 z m 3,2 v 6 l 4,-3 z"
         fill="#b59161"
         id="path3-2" /><path
         id="path12"
         style="fill:#b59161;fill-opacity:1;stroke-width:0.459682"
         d="M 55.994141 347.47498 C 55.835251 347.47482 54.938159 349.69853 54 352.41639 C 52.078442 357.98319 51.762191 358.50623 50.320312 358.50623 C 48.675834 358.50623 46.400391 357.55167 46.400391 356.8617 C 46.400391 356.34172 43.339822 354.36951 42.533203 354.36951 C 41.926834 354.36951 44.155349 358.27664 44.923828 358.56092 C 46.016467 358.96512 46.889888 362.03954 46.292969 363.37732 C 45.998589 364.03701 44.396086 364.82744 40.84375 366.06482 C 38.075213 367.02917 35.713766 367.97264 35.597656 368.16053 C 35.481536 368.34842 37.605722 369.2707 40.318359 370.21131 C 46.318443 372.29185 46.990458 372.90654 46.199219 375.58631 C 45.835859 376.81688 45.273568 377.63979 44.636719 377.87537 C 44.089589 378.07777 43.642578 378.32835 43.642578 378.43201 C 43.642578 378.53569 43.331341 379.3659 42.951172 380.27576 L 42.259766 381.93006 L 43.441406 381.48084 C 45.543664 380.68155 46.400391 380.093 46.400391 379.44959 C 46.400391 379.10302 47.279007 378.52044 48.353516 378.15467 C 51.186823 377.19022 52.022803 377.74089 53.294922 381.41443 C 53.878591 383.09991 54.767012 385.60309 55.269531 386.97693 L 56.183594 389.47498 L 58.103516 384.04334 C 60.374503 377.62328 60.816958 377.15258 63.671875 378.12537 C 64.790954 378.50667 65.707031 379.10706 65.707031 379.4574 C 65.707031 379.97343 68.761715 381.95154 69.558594 381.95154 C 70.180373 381.95154 68.147146 378.12658 67.373047 377.84021 C 66.222608 377.41464 65.239206 374.30232 65.828125 372.94764 C 66.133025 372.24629 67.658271 371.50234 71.492188 370.18787 C 74.377295 369.1987 76.737831 368.26294 76.738281 368.10779 C 76.738791 367.95263 74.514742 367.05417 71.796875 366.1117 C 65.654811 363.98187 65.04604 363.39893 66.011719 360.56482 C 66.397198 359.43348 66.99927 358.50623 67.349609 358.50623 C 67.934029 358.50623 70.11262 354.94503 69.75 354.5824 C 69.34679 354.17919 65.771442 356.21772 65.632812 356.93006 C 65.432393 357.95996 62.168357 358.9625 60.861328 358.3949 C 60.187549 358.10232 59.409274 356.503 58.103516 352.73084 C 57.102877 349.84017 56.15303 347.47516 55.994141 347.47498 z M 52.5 361.48279 L 61.5 361.4867 C 61.77701 361.4867 62 361.70966 62 361.9867 C 62 362.26374 61.77701 362.4867 61.5 362.4867 L 53 362.4867 L 53 367.4867 L 60.5 367.4867 C 60.777 367.4867 61 367.70966 61 367.9867 C 61 368.26374 60.77701 368.4867 60.5 368.4867 L 53 368.4867 L 53 374.4867 L 61.5 374.4867 C 61.77701 374.4867 62 374.7097 62 374.9867 C 62 375.26374 61.77701 375.4867 61.5 375.4867 L 52.5 375.4867 C 52.223 375.4867 52 375.2637 52 374.9867 L 52 368.01209 C 51.99957 368.00079 52 367.9943 52 367.9867 C 52 367.9754 51.99957 367.96685 52 367.95936 L 52 361.98475 C 52 361.70771 52.22299 361.48475 52.5 361.48475 L 52.5 361.48279 z " /><path
         id="path13"
         style="fill:#b59161;fill-opacity:1;stroke-width:0.459682"
         d="M 230 347.47498 C 229.84111 347.47482 228.94402 349.69853 228.00586 352.41639 C 226.0843 357.98319 225.76805 358.50623 224.32617 358.50623 C 222.68169 358.50623 220.40625 357.55167 220.40625 356.8617 C 220.40625 356.34172 217.34568 354.36951 216.53906 354.36951 C 215.93269 354.36951 218.16121 358.27664 218.92969 358.56092 C 220.02233 358.96512 220.89575 362.03954 220.29883 363.37732 C 220.00445 364.03701 218.39999 364.82744 214.84766 366.06482 C 212.07912 367.02917 209.71963 367.97264 209.60352 368.16053 C 209.4874 368.34842 211.61158 369.2707 214.32422 370.21131 C 220.3243 372.29185 220.99632 372.90654 220.20508 375.58631 C 219.84172 376.81688 219.27943 377.63979 218.64258 377.87537 C 218.09545 378.07777 217.64844 378.32835 217.64844 378.43201 C 217.64844 378.53569 217.3372 379.3659 216.95703 380.27576 L 216.26562 381.93006 L 217.44727 381.48084 C 219.54952 380.68155 220.40625 380.093 220.40625 379.44959 C 220.40625 379.10302 221.28487 378.52044 222.35938 378.15467 C 225.19268 377.19022 226.02866 377.74089 227.30078 381.41443 C 227.88445 383.09991 228.77287 385.60309 229.27539 386.97693 L 230.1875 389.47498 L 232.10938 384.04334 C 234.38036 377.62328 234.82282 377.15258 237.67773 378.12537 C 238.79681 378.50667 239.71289 379.10706 239.71289 379.4574 C 239.71289 379.97343 242.76757 381.95154 243.56445 381.95154 C 244.18623 381.95154 242.15105 378.12658 241.37695 377.84021 C 240.22651 377.41464 239.24506 374.30232 239.83398 372.94764 C 240.13888 372.24629 241.66413 371.50234 245.49805 370.18787 C 248.38315 369.1987 250.74369 368.26294 250.74414 368.10779 C 250.74465 367.95263 248.5206 367.05417 245.80273 366.1117 C 239.66067 363.98187 239.0519 363.39893 240.01758 360.56482 C 240.40306 359.43348 241.00513 358.50623 241.35547 358.50623 C 241.93989 358.50623 244.11848 354.94503 243.75586 354.5824 C 243.35265 354.17919 239.7773 356.21772 239.63867 356.93006 C 239.43825 357.95996 236.17422 358.9625 234.86719 358.3949 C 234.19341 358.10232 233.41318 356.503 232.10742 352.73084 C 231.10678 349.84017 230.15889 347.47516 230 347.47498 z M 231 361.48475 C 233.2895 361.48552 235.43391 362.60587 236.74219 364.48475 L 235.46875 364.48475 C 234.3313 363.21304 232.70618 362.48573 231 362.48475 C 227.68629 362.48475 225 365.17104 225 368.48475 C 225 371.79845 227.68629 374.48475 231 374.48475 C 232.70618 374.48377 234.3313 373.75645 235.46875 372.48475 L 236.72852 372.48475 C 235.42301 374.35965 233.28465 375.4795 231 375.48475 C 227.13401 375.48475 224 372.35073 224 368.48475 C 224 364.61876 227.13401 361.48475 231 361.48475 z " /></g><g
       id="logo"
       transform="translate(-65,427.47498)"><rect
         id="rect1-2"
         width="292"
         height="196"
         x="0"
         y="0"
         style="fill:none" /><path
         d="m 119.71,180.43 c -0.0939,-2.5359 -0.22694,-4.7928 -0.29564,-5.0152 -0.0872,-0.2822 -0.95932,-0.40446 -2.8853,-0.40446 h -2.7604 v 4.6698 c 0,4.3787 0.0402,4.6826 0.64423,4.8743 0.35433,0.11246 0.79113,0.11368 0.97069,0.003 0.19242,-0.11892 0.32645,-1.9251 0.32645,-4.3991 0,-4.4925 0.17381,-4.9499 1.5925,-4.1906 0.60958,0.32623 0.67274,0.65357 0.67597,3.5032 0.005,4.5146 0.22369,5.5701 1.1535,5.5701 h 0.7488 z m 139.36,3.9522 c 0.46152,-0.247 0.62585,-0.68103 0.62585,-1.653 0,-1.1662 -0.205,-1.523 -1.7796,-3.0976 -1.9192,-1.9192 -2.2657,-3.0441 -1.1258,-3.6542 0.3596,-0.19245 0.79339,-0.26364 0.964,-0.1582 0.34198,0.21136 1.6178,-0.37173 1.6178,-0.7394 10e-6,-0.12721 -0.47319,-0.20609 -1.0516,-0.1753 -0.57838,0.0308 -1.7432,0.0672 -2.5885,0.0809 l -1.5369,0.0249 v 1.6793 c 0,1.6207 0.0621,1.7367 1.7796,3.3224 1.73,1.5973 2.0916,2.4173 1.4869,3.372 -0.28247,0.44597 -1.5155,0.39495 -2.7003,-0.11173 -0.40483,-0.17313 -0.56623,-0.094 -0.56623,0.2778 0,0.28598 0.0364,0.53022 0.0809,0.54276 0.0445,0.0125 0.8089,0.098 1.6987,0.18989 0.88979,0.0919 1.6785,0.22724 1.7526,0.30076 0.22314,0.22124 0.68139,0.15253 1.3425,-0.20127 z M 40.04,184.11531 c 0.11019,-0.0249 0.28959,-0.5185 0.39867,-1.0969 0.10909,-0.57837 0.41917,-2.1436 0.68908,-3.4783 0.26991,-1.3347 0.49092,-2.9096 0.49113,-3.4998 3.4e-4,-0.97981 -0.077,-1.0642 -0.88942,-0.97069 -0.61753,0.0711 -0.90559,0.3004 -0.94142,0.74951 -0.0284,0.35592 -0.20082,1.6399 -0.38318,2.8533 -0.50743,3.3764 -1.6378,4.2093 -1.7006,1.253 -0.0435,-2.0448 -0.37487,-3.1117 -1.0042,-3.2329 -0.42866,-0.0826 -0.56396,0.3392 -0.75177,2.3434 -0.21984,2.346 -0.1858,2.7848 0.32773,4.2252 0.1269,0.35592 -0.23599,-0.0417 -0.80642,-0.88354 -0.80431,-1.187 -1.1268,-2.1376 -1.4365,-4.2343 -0.45462,-3.0781 -0.61806,-3.4566 -1.4927,-3.4566 -0.46987,0 -0.62756,0.22409 -0.62617,0.8898 0.004,1.7795 1.256,8.271 1.6415,8.5093 0.31407,0.19411 5.6489,0.21839 6.4842,0.0295 z m 17.353,0.0743 c 0.71065,-0.19044 0.72801,-0.30224 0.72801,-4.6872 v -4.4921 h -1.9414 v 3.8563 c 0,2.121 -0.0884,4.0866 -0.1964,4.3681 -0.19931,0.51939 -1.2722,0.67294 -2.2038,0.31541 -0.42989,-0.16497 -0.5118,-0.86062 -0.5118,-4.3463 0,-3.8595 -0.0451,-4.1642 -0.64423,-4.3544 -0.35433,-0.11246 -0.79114,-0.11368 -0.97069,-0.003 -0.19327,0.11945 -0.32646,1.9695 -0.32646,4.5347 0,3.7852 0.0716,4.3746 0.56624,4.6627 0.6181,0.36001 4.3334,0.45832 5.5006,0.14554 z m 13.67,-3.8089 v -4.0129 l 0.97069,-0.33839 c 0.53387,-0.18611 0.97068,-0.55157 0.97068,-0.81215 0,-0.39278 -0.48394,-0.44483 -2.8312,-0.30447 -1.5572,0.0931 -2.8883,0.22241 -2.9582,0.28734 -0.26809,0.24918 0.69241,1.0702 1.3638,1.1658 0.67458,0.0961 0.70603,0.25845 0.73998,3.8213 0.0195,2.0465 0.0559,3.8302 0.0809,3.9636 0.025,0.1334 0.40944,0.24267 0.85434,0.24267 h 0.8089 z m 13.078,3.8165 c 0.37781,-0.14498 0.51181,-0.64633 0.51181,-1.9149 0,-2.445 0.17751,-2.7421 1.6382,-2.7421 h 1.2455 l 0.0951,2.3458 c 0.0916,2.2612 0.12427,2.3458 0.90397,2.3458 h 0.80891 l 0.0935,-4.0445 c 0.11283,-4.88 -0.0152,-5.58 -0.99475,-5.4407 -0.61626,0.0876 -0.73923,0.35049 -0.87836,1.8776 -0.16063,1.7631 -0.1704,1.7771 -1.3726,1.9709 -0.66593,0.10735 -1.2847,0.12123 -1.3751,0.0308 -0.0904,-0.0904 -0.16436,-0.7849 -0.16436,-1.5434 0,-1.4004 -0.69903,-2.5399 -1.4127,-2.303 -0.3732,0.12392 -0.71851,8.329 -0.3869,9.1931 0.17783,0.46342 0.51278,0.52178 1.2878,0.22438 z m 19.602,-0.28894 c 0,-0.34932 -0.35739,-0.48535 -1.2752,-0.48535 -0.70133,0 -1.3712,-0.15542 -1.4886,-0.34537 -0.11739,-0.18996 -0.19546,-1.8215 -0.17347,-3.6256 0.0433,-3.5546 0.18987,-3.861 1.7776,-3.7179 0.53421,0.0482 1.0021,-0.0904 1.0785,-0.31936 0.10015,-0.29988 -0.49934,-0.40446 -2.3186,-0.40446 h -2.4537 v 9.3833 h 2.4267 c 1.9414,0 2.4267,-0.0971 2.4267,-0.48534 z m 28.402,-4.1813 c 0.094,-4.6823 0.006,-5.0238 -1.3037,-5.0352 -0.51443,-0.005 -0.56623,0.441 -0.56623,4.87 v 4.8749 l 1.7796,-0.20476 z m 11.648,0.0559 c 0.0837,-4.1362 0.13359,-4.449 0.70967,-4.449 1.2623,0 1.627,1.1766 1.627,5.249 v 3.8108 h 1.6178 l -0.005,-4.1254 c -0.003,-2.269 -0.13901,-4.3373 -0.30285,-4.5963 -0.28744,-0.45439 -4.7173,-1.0995 -5.2736,-0.76797 -0.13347,0.0795 -0.24267,2.2569 -0.24267,4.8387 v 4.694 l 1.7796,-0.20476 z m 19.419,1.9185 0.0949,-2.5304 -0.90382,0.10373 c -0.77781,0.0893 -0.91554,0.26162 -0.9879,1.2362 -0.20284,2.7318 -0.39212,3.2356 -1.2157,3.2356 h -0.78511 l -0.18,-8.898 -1.7796,-0.20476 v 4.6592 c 0,2.5626 0.10248,4.7617 0.22773,4.8869 0.12525,0.1252 1.3993,0.18592 2.8312,0.13482 l 2.6034,-0.0929 z m 27.983,2.4942 c 0.10892,-0.10891 -0.22376,-0.94613 -0.73928,-1.8605 -0.5878,-1.0426 -1.0774,-2.5673 -1.313,-4.0892 -0.28802,-1.8606 -0.56008,-2.5965 -1.1662,-3.1547 -1.0723,-0.98746 -1.5221,-0.93055 -1.2788,0.16179 0.10901,0.48938 0.49286,2.6192 0.853,4.7329 0.36015,2.1137 0.73334,3.9701 0.82931,4.1254 0.19726,0.31917 2.5108,0.38847 2.815,0.0843 z m 4.6535,-3.5229 c 0.38554,-1.9576 0.71356,-4.0421 0.72892,-4.6322 0.0256,-0.98122 -0.0469,-1.0643 -0.84687,-0.97069 -0.84629,0.099 -0.88899,0.20259 -1.3099,3.1762 -0.33306,2.3528 -0.60223,3.2426 -1.1475,3.7932 l -0.71233,0.71935 v -2.726 c 0,-2.6821 -0.35302,-3.7243 -1.1043,-3.26 -0.59991,0.37077 -0.44454,5.4002 0.19572,6.3358 0.7832,1.1444 1.0931,1.3028 2.3637,1.208 l 1.1316,-0.0845 z m 12.326,1.6178 c 0.24939,-1.0678 0.55127,-2.8544 0.67083,-3.9703 0.25196,-2.3516 0.7495,-2.7409 1.1286,-0.88315 0.60686,2.9736 1.284,6.1747 1.3859,6.5521 0.0601,0.22245 0.47781,0.40445 0.9283,0.40445 0.45048,0 0.81273,-0.182 0.805,-0.40445 -0.0251,-0.72176 -1.5038,-8.6632 -1.6381,-8.7975 -0.0717,-0.0717 -1.0017,-0.1782 -2.0668,-0.23673 l -1.9365,-0.10643 -0.22768,1.1325 c -1.1208,5.5749 -1.5084,7.9087 -1.3549,8.1572 0.0994,0.16087 0.55676,0.24775 1.0163,0.19306 0.73349,-0.0873 0.89091,-0.33653 1.289,-2.0408 z m 20.26,1.6888 c 0.40292,-0.29462 0.74743,-1.4865 1.1924,-4.1254 0.82824,-4.9114 0.82835,-4.9094 -0.26025,-4.7842 -0.86556,0.0996 -0.90156,0.18609 -1.3217,3.1762 -0.47267,3.364 -0.68887,3.9966 -1.4148,4.1398 -0.37908,0.0748 -0.599,-0.65413 -1.0216,-3.3859 -0.29618,-1.9146 -0.6487,-3.5914 -0.78337,-3.726 -0.41159,-0.41159 -1.8547,-0.45611 -1.7794,-0.0549 0.0382,0.2037 0.39085,2.1693 0.78357,4.3681 0.39272,2.1988 0.85248,4.1797 1.0217,4.4022 0.40178,0.52825 2.8567,0.52149 3.5834,-0.01 z m 16.635,0.039 c -0.0688,-0.20642 -0.73683,-0.40123 -1.4845,-0.43292 -0.74767,-0.0317 -1.4679,-0.16617 -1.6006,-0.29885 -0.41753,-0.41765 -0.28313,-6.9077 0.15206,-7.3428 0.21627,-0.21627 0.98068,-0.3702 1.6987,-0.34206 0.71801,0.0281 1.3055,-0.0815 1.3055,-0.24353 0,-0.28077 -4.1977,-0.6277 -4.8606,-0.40171 -0.3434,0.11706 -0.45023,8.0648 -0.11998,8.9254 0.15486,0.40355 0.70808,0.51181 2.6155,0.51181 1.6913,0 2.3814,-0.11292 2.294,-0.37531 z m -141.5,-4.4558 c 0.26626,-0.43081 -0.40479,-0.76433 -1.0442,-0.51897 -0.46619,0.17889 -0.4753,0.24983 -0.0654,0.50906 0.60708,0.38392 0.87694,0.38633 1.1096,0.01 z m 141.25,-0.34592 c 0,-0.17796 -0.2912,-0.32356 -0.64712,-0.32356 -0.35592,0 -0.64713,0.1456 -0.64713,0.32356 0,0.17796 0.29121,0.32356 0.64713,0.32356 0.35592,0 0.64712,-0.1456 0.64712,-0.32356 z m -81.591,-3.4439 c -0.11929,-0.62846 -1.5048,-0.97869 -2.4448,-0.61799 -0.444,0.17038 -0.43694,0.26461 0.0611,0.81496 0.60255,0.6658 1.7765,0.99745 2.2246,0.62845 0.15016,-0.12365 0.22172,-0.49509 0.15902,-0.82542 z m -73.793,-14.205 c 10.492,-2.1385 15.287,-3.7656 20.989,-7.1211 7.4596,-4.3902 12.457,-11.261 14.254,-19.595 0.52826,-2.4502 0.58478,-4.6357 0.58478,-22.611 0,-19.759 -0.005,-19.908 -0.69739,-21.201 -0.91683,-1.712 -3.4771,-4.0786 -5.65,-5.2227 l -1.7417,-0.91702 -19.575,-0.16178 c -20.925,-0.17293 -20.707,-0.15481 -21.188,-1.7636 -0.10903,-0.36473 -0.28449,-2.1477 -0.38991,-3.9621 l -0.19166,-3.2989 0.84148,-0.2112 c 0.46281,-0.11616 10.766,-0.16048 22.897,-0.0985 l 22.056,0.11271 1.3523,1.5369 c 0.74378,0.84531 1.4728,1.5369 1.6199,1.5369 0.14717,0 0.20011,-1.5171 0.11764,-3.3714 -0.16155,-3.6325 -0.50837,-4.5539 -2.109,-5.6029 -0.80499,-0.52761 -2.596,-0.58297 -23.696,-0.73252 l -22.826,-0.16178 -0.0937,-3.8828 c -0.0515,-2.1355 -0.01,-4.2215 0.0933,-4.6356 l 0.18699,-0.75284 15.438,0.10572 c 16.633,0.1139 17.154,0.0737 20.748,-1.6016 2.1204,-0.98823 4.0277,-2.6508 5.2596,-4.5846 l 0.91634,-1.4385 -0.003,-12.96 c -0.003,-12.95 -0.004,-12.961 -0.76798,-14.578 -1.1737,-2.4827 -3.2481,-4.1486 -6.5912,-5.2931 -1.7884,-0.6123 -2.7348,-0.69279 -8.1453,-0.69279 h -6.1218 l -0.75262,-0.99838 c -2.4114,-3.1988 -6.0066,-6.4436 -7.1396,-6.4436 -0.24542,0 -1.1404,0.80402 -1.9888,1.7867 -1.7291,2.0028 -3.339,2.9279 -7.2293,4.154 -4.1602,1.3112 -7.6787,1.6074 -16.589,1.3962 l -7.9273,-0.18785 1.9414,0.98476 c 3.6266,1.8396 4.8982,3.7347 5.9022,8.7964 0.44896,2.2634 0.55128,6.5929 0.70865,29.986 0.20501,30.472 0.042,28.458 2.4921,30.803 2.5693,2.4596 1.4469,2.3426 24.224,2.5234 19.384,0.15384 20.435,0.19233 21.413,0.78416 0.56568,0.3423 1.1097,0.92471 1.2089,1.2942 0.30401,1.1321 0.19663,27.496 -0.13643,33.497 -0.72661,13.093 -2.9636,19.484 -8.8958,25.416 -2.2316,2.2316 -3.6681,3.3362 -6.1477,4.727 -2.9555,1.6578 -6.584,3.1955 -9.0597,3.8394 -1.4721,0.38286 -4.6916,1.6493 -4.6916,1.8455 0,0.0952 0.22128,0.0882 0.49174,-0.0155 0.27047,-0.10379 2.3453,-0.56651 4.6108,-1.0283 z m -13.206,-108.62 c -0.21847,-1.2764 -0.25892,-4.1329 -0.10108,-7.1378 l 0.20056,-3.8181 13.524,0.0971 c 13.075,0.0939 13.553,0.11927 14.417,0.76426 2.0061,1.4986 2.2273,2.1172 2.2273,6.2311 v 3.7793 l -15.127,0.0841 c -8.3196,0.0463 -15.133,0.0463 -15.141,0 z m 29.992,-15.07 c -0.15123,-0.2342 -0.86468,-0.85301 -1.5854,-1.3751 l -1.3105,-0.94931 h -26.997 l -0.20055,-1.2134 c -0.26214,-1.5859 -0.26325,-6.38 -0.002,-8.2866 l 0.20576,-1.5012 h 13.854 c 9.7425,0 14.096,0.11031 14.67,0.37168 1.4726,0.67095 1.8358,2.3904 1.733,8.2027 -0.053,2.995 -0.20748,4.9975 -0.36656,4.7512 z m 152.62,123.05 c 6.5847,-1.6005 10.513,-3.5916 14.046,-7.1199 3.7739,-3.7687 4.8519,-6.1377 5.2905,-11.626 0.45971,-5.7526 0.17954,-109.44 -0.3021,-111.81 -1.0697,-5.2485 -3.43,-8.9901 -6.506,-10.313 -3.6548,-1.5722 -4.4246,-1.6358 -20.974,-1.7307 -8.5866,-0.0493 -15.612,-0.002 -15.612,0.10392 8e-5,0.10641 1.0794,0.72686 2.3984,1.3788 3.2531,1.6078 5.1406,3.5678 6.0408,6.2729 1.7302,5.1992 1.6828,3.4898 1.8146,65.522 0.0951,44.783 0.20904,57.513 0.51456,57.513 0.2158,0 1.494,-0.36689 2.8405,-0.8153 3.0479,-1.015 6.2435,-3.1126 7.5557,-4.9595 l 0.99948,-1.4068 0.16178,-24.995 c 0.13206,-20.403 0.24253,-25.092 0.60126,-25.524 0.66445,-0.80032 2.488,-1.1837 5.6393,-1.1857 l 2.8432,-0.002 -0.10184,27.584 c -0.0992,26.864 -0.11936,27.64 -0.77413,29.756 -0.89528,2.8924 -2.4131,5.3516 -5.0257,8.1428 -1.9243,2.0558 -3.2749,3.0693 -7.8737,5.9086 l -1.2942,0.79905 1.6178,-0.20271 c 0.88979,-0.11149 3.6345,-0.6929 6.0993,-1.292 z m 0.3086,-77.799 c -2.1096,-1.2863 -2.0564,-0.89085 -1.9628,-14.605 l 0.0848,-12.427 3.3709,0.084 c 3.0423,0.0758 3.476,0.16414 4.449,0.90626 l 1.0781,0.82228 v 25.852 l -2.993,-0.001 c -2.3956,-9.6e-4 -3.1993,-0.12703 -4.0269,-0.63167 z m -1.8639,-33.703 c -0.0878,-0.24563 -0.20486,-4.7419 -0.26018,-9.9917 -0.0948,-8.9947 -0.14339,-9.6649 -0.84297,-11.623 -0.40832,-1.1426 -1.0948,-2.596 -1.5254,-3.2298 -0.43067,-0.63378 -0.78303,-1.2839 -0.78303,-1.4448 0,-0.37946 2.6432,-0.0174 4.6011,0.6302 0.84001,0.27785 2.2523,1.157 3.1384,1.9537 3.2664,2.9367 4.5447,7.5663 4.5515,16.484 l 0.004,5.5209 -0.96254,0.92217 c -0.90588,0.86789 -1.1627,0.93108 -4.3621,1.0734 -2.7001,0.12009 -3.4324,0.0593 -3.5591,-0.2954 z m -95.999,111.66 c 3.9399,-1.4974 9.0862,-4.6438 12.07,-7.3791 3.9246,-3.5982 8.1897,-10.335 9.9676,-15.744 1.8212,-5.5408 1.9016,-6.6584 2.0136,-27.988 l 0.10278,-19.576 -12.1,-0.176 -0.11832,24.517 c -0.11284,23.383 -0.14921,24.652 -0.78635,27.429 -0.8357,3.6429 -2.564,8.2708 -4.0089,10.735 -1.3225,2.2551 -5.9486,6.9569 -7.7481,7.8749 -0.70684,0.36061 -1.2852,0.72549 -1.2852,0.81085 0,0.21889 -0.0221,0.22476 1.8931,-0.50315 z m 51.056,-8.1147 c 4.3551,-1.3429 6.6731,-3.0583 8.2573,-6.1108 0.74671,-1.4388 0.75682,-1.5997 0.85372,-13.59 l 0.0981,-12.134 7.3122,0.10361 c 4.0217,0.057 7.6541,0.0178 8.0719,-0.0871 0.72708,-0.18248 0.75967,-0.31611 0.75967,-3.1147 v -2.924 l -7.9636,0.0594 c -5.7331,0.0428 -8.0283,-0.0454 -8.1947,-0.31463 -0.12714,-0.20572 -0.16457,-3.8477 -0.0832,-8.0933 0.17522,-9.141 0.046,-10.334 -1.2832,-11.848 -1.4045,-1.5996 -3.4905,-2.1497 -7.2122,-1.902 -3.4611,0.23044 -6.9546,-0.2592 -7.5384,-1.0566 -0.31486,-0.43004 -0.40445,-5.8095 -0.40445,-24.286 v -23.734 l 9.534,0.0947 c 10.634,0.10563 10.319,0.0362 10.867,2.395 0.16062,0.69238 0.29551,10.923 0.29975,22.735 l 0.008,21.476 0.97658,-0.19531 c 1.6081,-0.32162 5.6951,-2.1317 7.0825,-3.1367 0.71309,-0.51656 1.8852,-1.6839 2.6046,-2.5941 l 1.3081,-1.6549 v -41.22 l -1.403,-1.4852 c -0.77164,-0.81687 -1.7085,-1.6487 -2.0819,-1.8486 -0.43221,-0.23131 -2.8617,-0.36334 -6.6861,-0.36334 h -6.0072 v -8.4592 l 8.0856,0.0806 c 4.4471,0.0444 8.148,0.0182 8.2243,-0.0581 0.31026,-0.31026 -1.5681,-3.642 -2.6404,-4.6834 l -1.1499,-1.1167 h -12.52 v -2.9224 c 0,-3.4558 -0.39249,-4.5724 -2.1714,-6.1775 -1.4713,-1.3276 -3.4306,-2.0663 -6.7265,-2.5361 -3.7797,-0.53878 -3.3974,-1.1746 -3.3974,5.6502 v 5.9859 h -16.502 v 2.8743 c 0,2.7075 0.0422,2.8856 0.72801,3.0686 0.40041,0.10686 4.0907,0.10124 8.2007,-0.0125 5.3279,-0.14744 7.5364,-0.10376 7.6945,0.15219 0.12203,0.19744 0.12238,2.1194 7.8e-4,4.271 l -0.22108,3.912 -16.241,-0.0924 v 55.231 l 1.0946,1.5205 c 1.7069,2.371 2.5695,2.6482 8.6122,2.7677 2.8474,0.0563 5.5046,0.1729 5.905,0.2591 l 0.72801,0.15674 v 17.125 l -16.34,0.1728 -0.0948,2.7226 c -0.0683,1.9597 0.0224,2.7969 0.32356,2.988 0.23012,0.14598 3.9493,0.26766 8.2648,0.27038 l 7.8464,0.005 v 16.178 c 0,13.622 0.0713,16.178 0.45126,16.178 0.2482,0 1.4494,-0.30779 2.6694,-0.68397 z m -184.96,-19.375 c 10.04,-1.1914 19.053,-4.1076 23.774,-7.6923 1.9656,-1.4925 4.4294,-4.4918 5.0418,-6.1377 0.37694,-1.0131 0.46955,-7.763 0.55169,-40.207 0.10406,-41.104 -0.0648,-48.669 -1.156,-51.785 -1.4973,-4.277 -3.2823,-6.5762 -6.3512,-8.1808 l -1.9608,-1.0252 -16.932,-0.0919 c -10.232,-0.0556 -16.859,0.0257 -16.748,0.20533 0.10105,0.1635 0.87713,0.39383 1.7246,0.51184 2.1309,0.29673 5.3518,1.9191 6.3109,3.1788 1.8899,2.4823 2.9444,5.5604 3.4666,10.119 0.21088,1.8409 0.33339,18.363 0.33508,45.188 0.002,24.007 0.12578,42.363 0.2875,42.463 0.37371,0.23097 3.9675,-0.95701 5.9797,-1.9767 0.87278,-0.44227 2.3083,-1.4789 3.19,-2.3036 2.9395,-2.7496 2.6672,1.1349 2.7722,-39.538 0.0916,-35.466 -0.0956,-44.852 -0.94253,-47.24 -0.22086,-0.62286 -0.81173,-1.7798 -1.313,-2.571 -0.5013,-0.79117 -0.91146,-1.5759 -0.91146,-1.7438 0,-0.57694 3.386,0.0902 5.177,1.02 1.3688,0.71063 2.0178,1.3173 2.8116,2.6285 2.3138,3.8218 2.4042,5.8352 2.296,51.142 l -0.0924,38.666 -0.69315,1.6887 c -1.0917,2.6597 -2.8531,4.7696 -5.885,7.0495 -3.0805,2.3164 -7.8586,4.8014 -10.271,5.3422 -2.0396,0.45709 -5.638,1.6255 -5.638,1.8306 0,0.0892 0.54601,0.0776 1.2134,-0.0258 0.66735,-0.10336 2.451,-0.33479 3.9636,-0.51429 z m 68.207,-2.4276 c 1.6554,-0.44348 3.8394,-1.2061 4.8534,-1.6948 3.4601,-1.6674 6.3415,-5.4616 7.4249,-9.777 0.24954,-0.99399 0.53206,-4.3583 0.63305,-7.5384 l 0.18238,-5.7432 h -7.2055 v 3.3262 c 0,4.2424 -0.77616,10.536 -1.6471,13.356 -1.1418,3.6968 -2.7373,5.7432 -5.8792,7.5409 -2.8209,1.614 -2.633,1.6748 1.6381,0.53058 z m -24.379,-0.33449 c 5.7151,-1.4886 9.3419,-5.163 10.876,-11.019 0.72423,-2.764 1.3188,-13.376 0.75223,-13.425 -0.15954,-0.0138 -1.7461,-0.0462 -3.5257,-0.0719 l -3.2356,-0.0468 -0.25152,5.168 c -0.41038,8.4322 -1.8119,14.008 -4.2438,16.883 -0.48274,0.57078 -1.925,1.5617 -3.205,2.2021 l -2.3273,1.1643 1.6736,-0.19136 c 0.92049,-0.10524 2.4896,-0.40388 3.4868,-0.66363 z m 11.385,0.29637 c 6.6744,-1.3718 10.589,-4.9254 12.259,-11.128 0.46097,-1.7119 1.4027,-13.104 1.1056,-13.375 -0.0799,-0.073 -1.6995,-0.1989 -3.5991,-0.27988 l -3.4538,-0.14725 -0.18006,2.777 c -1.0074,15.537 -1.8652,18.056 -7.3338,21.54 -0.96617,0.61555 -1.663,1.1229 -1.5486,1.1275 0.11444,0.005 1.3521,-0.22686 2.7503,-0.51424 z m -24.301,-0.29624 c 8.3484,-2.1437 11.782,-7.902 11.793,-19.778 l 0.004,-4.5804 -3.3165,-0.12781 c -1.8241,-0.0703 -3.4257,-0.0753 -3.5592,-0.0112 -0.13346,0.0641 -0.24519,1.6732 -0.24827,3.5758 -0.0105,6.4656 -1.0584,12.947 -2.566,15.87 -1.0756,2.086 -2.797,3.7912 -4.4475,4.4055 -0.85544,0.31839 -1.6937,0.70535 -1.8627,0.85991 -0.50052,0.45759 2.1038,0.32488 4.203,-0.21418 z m 161.96,-61.952 -0.19275,-6.3095 -5.0961,-0.0891 c -2.8029,-0.049 -5.0961,0.0293 -5.0961,0.17405 0,0.14473 0.93029,0.87478 2.0673,1.6223 1.137,0.74755 2.7751,2.1367 3.6401,3.0869 1.4618,1.6058 4.6466,6.9038 4.6466,7.7296 0,0.20058 0.0503,0.30403 0.11186,0.22988 0.0615,-0.0742 0.0251,-2.9741 -0.0809,-6.4443 z m -34.877,5.905 c 0.25079,-0.44547 -0.35602,-10.662 -0.74438,-12.532 -0.89572,-4.3147 -2.8394,-6.8039 -6.1488,-7.8747 -1.0377,-0.33573 -4.8929,-0.68764 -12.942,-1.1814 l -3.0738,-0.18855 1.8669,0.78412 c 5.4778,2.3007 7.8285,6.5944 8.642,15.785 0.17871,2.019 0.32617,4.0713 0.32769,4.5607 l 0.003,0.88979 h 5.9668 c 3.2817,0 6.0283,-0.1092 6.1034,-0.24267 z m 0.1648,-36.32 c 0.14893,-2.6128 -0.49347,-9.903 -1.0634,-12.068 -0.2716,-1.0317 -0.99088,-2.6529 -1.5984,-3.6026 -1.555,-2.4308 -3.4578,-3.3216 -7.9608,-3.7269 -4.9465,-0.44521 -11.319,-0.77234 -11.319,-0.58104 0,0.091 0.82576,0.56939 1.835,1.0632 3.9508,1.9329 5.7666,4.6116 6.9016,10.182 0.37096,1.8203 0.76345,4.97 0.8722,6.9994 l 0.19774,3.6897 12.034,-0.1756 z"
         fill="#ffffff"
         id="path1-6" /></g></g></svg>
